<svg width="40" height="38" viewBox="0 0 40 38" fill="none" xmlns="http://www.w3.org/2000/svg">
<rect width="39.2727" height="37.4189" rx="13.4708" fill="url(#paint0_linear_127_76)"/>
<path d="M16.7192 11.7088C17.915 12.9046 17.915 14.8434 16.7192 16.0392C15.5234 17.235 13.5846 17.235 12.3888 16.0392C11.193 14.8434 11.193 12.9046 12.3888 11.7088C13.5846 10.513 15.5234 10.513 16.7192 11.7088ZM13.0384 15.3897C13.8754 16.2267 15.2326 16.2267 16.0696 15.3897C16.9067 14.5526 16.9067 13.1955 16.0696 12.3584C15.2326 11.5213 13.8754 11.5213 13.0384 12.3584C12.2013 13.1955 12.2013 14.5526 13.0384 15.3897Z" fill="white"/>
<path d="M26.725 21.2435C27.9208 22.4393 27.9208 24.3781 26.725 25.5739C25.5293 26.7697 23.5905 26.7697 22.3947 25.5739C21.1989 24.3781 21.1989 22.4393 22.3947 21.2435C23.5905 20.0477 25.5293 20.0477 26.725 21.2435ZM23.0442 24.9243C23.8813 25.7614 25.2384 25.7614 26.0755 24.9243C26.9126 24.0873 26.9126 22.7301 26.0755 21.8931C25.2384 21.056 23.8813 21.056 23.0442 21.8931C22.2072 22.7301 22.2072 24.0873 23.0442 24.9243Z" fill="white"/>
<path d="M14.8559 23.0189C16.0517 24.2147 16.0517 26.1535 14.8559 27.3493C13.6601 28.5451 11.7213 28.5451 10.5255 27.3493C9.32974 26.1535 9.32974 24.2147 10.5255 23.0189C11.7213 21.8231 13.6601 21.8231 14.8559 23.0189ZM11.1751 26.6997C12.0122 27.5368 13.3693 27.5368 14.2064 26.6997C15.0434 25.8627 15.0434 24.5055 14.2064 23.6685C13.3693 22.8314 12.0122 22.8314 11.1751 23.6685C10.338 24.5055 10.338 25.8627 11.1751 26.6997Z" fill="white"/>
<path d="M13.0826 16.0067C11.7239 18.9611 11.5321 20.4993 11.8404 23.108" stroke="white" stroke-width="1.19741"/>
<path d="M22.3739 25.0872C19.2732 26.3818 17.6588 26.5644 14.9209 26.2707" stroke="white" stroke-width="1.19741"/>
<path d="M24.2596 14.25C25.4554 15.4458 27.3942 15.4458 28.59 14.25C29.7858 13.0542 29.7858 11.1154 28.59 9.91958C27.3942 8.72378 25.4554 8.72378 24.2596 9.91958C23.0638 11.1154 23.0638 13.0542 24.2596 14.25ZM27.9404 10.5691C28.7775 11.4062 28.7775 12.7633 27.9404 13.6004C27.1034 14.4375 25.7462 14.4375 24.9092 13.6004C24.0721 12.7633 24.0721 11.4062 24.9092 10.5691C25.7462 9.73208 27.1034 9.73208 27.9404 10.5691Z" fill="white"/>
<path d="M16.7931 12.4583C19.8938 11.1636 21.5082 10.981 24.2461 11.2747" stroke="white" stroke-width="1.19741"/>
<path d="M26.3226 21.3116C27.6814 18.3573 27.8731 16.8191 27.5648 14.2104" stroke="white" stroke-width="1.19741"/>
<defs>
<linearGradient id="paint0_linear_127_76" x1="37.4397" y1="1.65686" x2="3.53485" y2="36.8407" gradientUnits="userSpaceOnUse">
<stop offset="0.0857672" stop-color="#F9A11F"/>
<stop offset="0.450644" stop-color="#632657"/>
<stop offset="0.492344" stop-color="#632657"/>
<stop offset="0.846795" stop-color="#198477"/>
</linearGradient>
</defs>
</svg>
